<svg width="16" height="14" viewBox="0 0 16 14" fill="none" xmlns="http://www.w3.org/2000/svg">
<path d="M0 12.4444C0 12.857 0.187301 13.2527 0.520699 13.5444C0.854097 13.8361 1.30628 14 1.77778 14H14.2222C14.6937 14 15.1459 13.8361 15.4793 13.5444C15.8127 13.2527 16 12.857 16 12.4444V1.55556C16 1.143 15.8127 0.747335 15.4793 0.455612C15.1459 0.163888 14.6937 0 14.2222 0H1.77778C1.30628 0 0.854097 0.163888 0.520699 0.455612C0.187301 0.747335 0 1.143 0 1.55556V12.4444ZM8 2.33333H13.3333V7H11.5556V3.88889H8V2.33333ZM2.66667 7H4.44444V10.1111H8V11.6667H2.66667V7Z" fill="white"/>
</svg>
