<svg width="20" height="20" viewBox="0 0 20 20" fill="none" xmlns="http://www.w3.org/2000/svg">
<path d="M3.56008 17.2733L9.0572 11.7761C9.38721 11.4461 9.55222 11.2811 9.74249 11.2193C9.90986 11.1649 10.0901 11.1649 10.2575 11.2193C10.4478 11.2811 10.6128 11.4461 10.9428 11.7761L16.4033 17.2366M11.6667 12.5L14.0572 10.1095C14.3872 9.77946 14.5522 9.61445 14.7425 9.55263C14.9099 9.49825 15.0901 9.49825 15.2575 9.55263C15.4478 9.61445 15.6128 9.77946 15.9428 10.1095L18.3333 12.5M8.33334 7.5C8.33334 8.42047 7.58715 9.16667 6.66667 9.16667C5.7462 9.16667 5.00001 8.42047 5.00001 7.5C5.00001 6.57953 5.7462 5.83333 6.66667 5.83333C7.58715 5.83333 8.33334 6.57953 8.33334 7.5ZM5.66667 17.5H14.3333C15.7335 17.5 16.4335 17.5 16.9683 17.2275C17.4387 16.9878 17.8212 16.6054 18.0609 16.135C18.3333 15.6002 18.3333 14.9001 18.3333 13.5V6.5C18.3333 5.09987 18.3333 4.3998 18.0609 3.86502C17.8212 3.39462 17.4387 3.01217 16.9683 2.77248C16.4335 2.5 15.7335 2.5 14.3333 2.5H5.66667C4.26654 2.5 3.56647 2.5 3.0317 2.77248C2.56129 3.01217 2.17884 3.39462 1.93916 3.86502C1.66667 4.3998 1.66667 5.09987 1.66667 6.5V13.5C1.66667 14.9001 1.66667 15.6002 1.93916 16.135C2.17884 16.6054 2.56129 16.9878 3.0317 17.2275C3.56647 17.5 4.26654 17.5 5.66667 17.5Z" stroke="black" stroke-opacity="0.6" stroke-width="1.5" stroke-linecap="round" stroke-linejoin="round"/>
</svg>
