<svg width="18" height="19" viewBox="0 0 18 19" fill="none" xmlns="http://www.w3.org/2000/svg">
<path d="M17.6622 14.8556L13.8247 11.266H14.6395C14.7922 11.2663 14.9419 11.2298 15.0715 11.1606C15.2012 11.0915 15.3055 10.9925 15.3727 10.8749C15.4391 10.7577 15.4659 10.6269 15.45 10.4973C15.4342 10.3678 15.3764 10.2446 15.2831 10.1417L12.4071 6.92226H13.2218C13.3698 6.92245 13.5151 6.88808 13.642 6.82283C13.769 6.75758 13.8728 6.66393 13.9423 6.55193C14.0118 6.43992 14.0444 6.3138 14.0366 6.18711C14.0288 6.06041 13.9809 5.93794 13.898 5.83283L9.61247 0.308838C9.53794 0.213776 9.43728 0.135884 9.31935 0.0820268C9.20142 0.0281696 9.06985 0 8.93623 0C8.80261 0 8.67104 0.0281696 8.55311 0.0820268C8.43518 0.135884 8.33452 0.213776 8.25999 0.308838L3.93368 5.83283C3.85079 5.93794 3.80288 6.06041 3.79508 6.18711C3.78728 6.3138 3.81989 6.43992 3.88942 6.55193C3.95894 6.66393 4.06275 6.75758 4.18969 6.82283C4.31663 6.88808 4.46191 6.92245 4.60992 6.92226H5.46541L2.58935 10.1417C2.49609 10.2446 2.43828 10.3678 2.42244 10.4973C2.4066 10.6269 2.43337 10.7577 2.49973 10.8749C2.56691 10.9925 2.67128 11.0915 2.80094 11.1606C2.93059 11.2298 3.0803 11.2663 3.233 11.266H4.04775L0.210286 14.8556C0.10607 14.9544 0.0370122 15.0767 0.0112607 15.2081C-0.0144907 15.3395 0.00413867 15.4745 0.0649509 15.5971C0.125763 15.7197 0.22622 15.8248 0.354469 15.9001C0.482718 15.9753 0.633408 16.0176 0.788756 16.0218H8.12148V18.8571H9.75098V16.0218H17.0837C17.2411 16.0215 17.3951 15.9821 17.5269 15.9084C17.6588 15.8346 17.7629 15.7298 17.8267 15.6064C17.8905 15.483 17.9112 15.3465 17.8863 15.2132C17.8615 15.08 17.7921 14.9557 17.6866 14.8556H17.6622ZM2.65453 14.6251L6.49199 11.0356C6.59773 10.9363 6.66782 10.813 6.69383 10.6805C6.71985 10.5479 6.70068 10.4118 6.63864 10.2883C6.57504 10.1634 6.47017 10.0572 6.33698 9.98272C6.20379 9.90826 6.04809 9.86884 5.88907 9.86932H4.86249L7.73855 6.6499C7.83128 6.54665 7.88846 6.42323 7.90363 6.29359C7.9188 6.16394 7.89135 6.03324 7.82438 5.91627C7.75742 5.7993 7.65361 5.70071 7.5247 5.63167C7.39579 5.56262 7.24691 5.52586 7.0949 5.52555H6.1172L8.93623 1.94997L11.7308 5.52555H10.7531C10.6011 5.52586 10.4522 5.56262 10.3233 5.63167C10.1944 5.70071 10.0906 5.7993 10.0236 5.91627C9.95667 6.03324 9.92922 6.16394 9.94439 6.29359C9.95956 6.42323 10.0167 6.54665 10.1095 6.6499L13.01 9.86932H11.9997C11.8407 9.86884 11.685 9.90826 11.5518 9.98272C11.4186 10.0572 11.3137 10.1634 11.2501 10.2883C11.1859 10.4105 11.1641 10.5459 11.1872 10.6784C11.2103 10.8109 11.2774 10.9349 11.3805 11.0356L15.2016 14.6251H2.65453Z" fill="black" fill-opacity="0.6"/>
</svg>
