<svg width="10" height="11" viewBox="0 0 10 11" fill="none" xmlns="http://www.w3.org/2000/svg">
<path d="M-9.53674e-07 0.54046V10.2632C0.000343323 10.3616 0.0307131 10.4581 0.0878363 10.5422C0.14496 10.6264 0.226674 10.695 0.324185 10.7408C0.421697 10.7865 0.531312 10.8076 0.64123 10.8017C0.751148 10.7959 0.857208 10.7634 0.947994 10.7077L8.80264 5.84635C9.1283 5.64488 9.1283 5.15982 8.80264 4.95781L0.947994 0.0964566C0.857398 0.0401864 0.751284 0.00718825 0.641183 0.00104731C0.531081 -0.00509363 0.421203 0.0158575 0.323485 0.0616244C0.225768 0.107391 0.143948 0.176224 0.0869169 0.260643C0.0298862 0.345062 -0.000175476 0.441839 -9.53674e-07 0.54046Z" fill="#578C62"/>
</svg>
